<?xml version="1.0" encoding="UTF-8"?>
<!DOCTYPE svg PUBLIC "-//W3C//DTD SVG 1.1//EN" "http://www.w3.org/Graphics/SVG/1.1/DTD/svg11.dtd">
<!-- Creator: CorelDRAW X5 -->
<svg xmlns="http://www.w3.org/2000/svg" xml:space="preserve" width="45.0604mm" height="31.4476mm" style="shape-rendering:geometricPrecision; text-rendering:geometricPrecision; image-rendering:optimizeQuality; fill-rule:evenodd; clip-rule:evenodd"
viewBox="0 0 4506 3145"
 xmlns:xlink="http://www.w3.org/1999/xlink"
 xmlns:svg="http://www.w3.org/2000/svg">
 <defs>
  <style type="text/css">
   <![CDATA[
    .str0 {stroke:#332C2B;stroke-width:7.62}
    .fil0 {fill:none}
    .fil1 {fill:#0C0B8B}
    .fil3 {fill:#D5D9F6}
    .fil2 {fill:white}
    .fil4 {fill:#0C0B8B;fill-rule:nonzero}
    .fil5 {fill:#332C2B;fill-rule:nonzero}
   ]]>
  </style>
 </defs>
<symbol id="format_x0020_logo_x0020_utk_x0020_jpg" viewBox="-7083 -8175 18672 19496">
 <rect class="fil0 str0" x="-7079" y="-8172" width="18665" height="19488"/>
</symbol>
 <g id="Layer_x0020_1">
  <metadata id="CorelCorpID_0Corel-Layer"/>
 </g>
 <g id="svg2">
  <metadata id="CorelCorpID_1Corel-Layer"/>
  <path class="fil1" d="M3181 928c0,-512 -415,-928 -928,-928 -512,0 -928,415 -928,928 0,512 415,928 928,928 512,0 928,-415 928,-928z"/>
  <path class="fil2" d="M2239 287c0,0 96,63 109,165 13,102 -84,189 -84,189l26 16c0,0 51,-67 159,-79 108,-13 213,38 213,38 0,0 -87,127 -198,135 -87,6 -147,-34 -147,-34 0,0 -51,87 -58,260 -1,19 -1,39 -2,58 15,-3 29,-8 29,-8 0,0 -12,-164 112,-208 124,-44 278,25 278,25 0,0 -86,161 -189,216 -102,55 -163,54 -163,54l-7 176 -32 0 0 -168c0,0 -15,2 -30,4 -2,117 -1,212 -1,212l-16 0 -16 0c0,0 1,-95 -1,-212 -15,-1 -30,-4 -30,-4l0 168 -32 0 -7 -176c0,0 -61,1 -163,-54 -102,-55 -189,-216 -189,-216 0,0 154,-69 278,-25 124,44 112,208 112,208 0,0 14,5 29,8 -1,-19 -1,-39 -2,-58 -7,-173 -58,-260 -58,-260 0,0 -60,39 -147,34 -111,-7 -198,-135 -198,-135 0,0 105,-51 213,-38 108,13 159,79 159,79l26 -16c0,0 -97,-86 -84,-189 13,-102 109,-165 109,-165l0 0zm0 1123c38,0 85,-48 143,-53 58,-5 80,17 128,15 48,-2 93,-17 93,-17l19 65c0,0 -91,22 -148,10 -57,-12 -123,-9 -151,7 -28,17 -55,56 -84,56 -29,0 -55,-40 -84,-56 -28,-17 -94,-19 -151,-7 -57,12 -148,-10 -148,-10l19 -65c0,0 45,15 93,17 48,2 71,-20 128,-15 58,5 105,53 143,53l0 0zm382 -541c0,0 -85,-28 -158,6 -73,34 -118,142 -118,142 0,0 76,-2 162,-54 86,-51 114,-94 114,-94zm-763 0c0,0 85,-28 158,6 73,34 119,142 119,142 0,0 -76,-2 -162,-54 -86,-51 -114,-94 -114,-94zm382 -91c0,0 4,-18 13,-39 9,-22 22,-46 22,-46l-35 -28 -35 28c0,0 12,24 22,46 9,22 13,39 13,39zm0 -191c0,0 44,-56 44,-117 0,-62 -44,-105 -44,-105 0,0 -44,43 -44,105 0,62 44,117 44,117zm-333 39c0,0 59,-9 119,1 60,10 89,43 89,43 0,0 -51,23 -119,9 -68,-14 -89,-54 -89,-54l0 0zm667 0c0,0 -59,-9 -118,1 -60,10 -89,43 -89,43 0,0 51,23 119,9 68,-14 89,-54 89,-54l0 0z"/>
  <path class="fil3" d="M1811 1646l71 -115c0,0 44,22 48,41 6,28 -18,45 -34,40 15,12 16,31 1,49 -15,18 -58,14 -86,-15l0 0zm58 -56l20 -32c0,0 20,9 21,19 1,10 -5,23 -19,22 -13,-1 -22,-10 -22,-10l0 0zm-32 55l26 -41c0,0 25,11 26,24 2,13 -5,27 -23,28 -17,1 -29,-11 -29,-11l0 0z"/>
  <path class="fil3" d="M2035 1604c39,0 70,32 70,70 0,39 -32,70 -70,70 -39,0 -70,-32 -70,-70 0,-39 32,-70 70,-70zm0 24c26,0 47,21 47,47 0,26 -21,47 -47,47 -26,0 -47,-21 -47,-47 0,-26 21,-47 47,-47z"/>
  <path class="fil3" d="M2230 1631c30,0 55,19 66,45l-26 0c-8,-13 -23,-21 -39,-21 -26,0 -47,21 -47,47 0,26 21,47 47,47 19,0 36,-12 43,-28l-56 0 0 -19c28,0 56,0 83,0 0,39 -31,71 -70,71 -39,0 -70,-32 -70,-70 0,-39 32,-70 70,-70l0 0z"/>
  <path class="fil3" d="M2419 1612c39,0 70,32 70,70 0,39 -32,70 -70,70 -39,0 -70,-32 -70,-70 0,-39 32,-70 70,-70zm0 24c26,0 47,21 47,47 0,26 -21,47 -47,47 -26,0 -47,-21 -47,-47 0,-26 21,-47 47,-47z"/>
  <path class="fil3" d="M2579 1701l-60 -119c0,0 52,-41 83,-21 33,22 16,59 -1,70l53 29 -22 13 -57 -30 23 45 -20 13zm-35 -113l24 40c0,0 33,-11 33,-33 0,-22 -21,-24 -31,-21 -10,3 -26,14 -26,14l0 0z"/>
  <polygon class="fil3" points="1562,1366 1573,1384 1696,1313 1684,1295 "/>
  <polygon class="fil3" points="1624,1191 1487,1225 1481,1200 1571,1109 1466,1135 1462,1113 1596,1085 1603,1108 1514,1195 1617,1170 "/>
  <polygon class="fil3" points="1502,519 1490,537 1609,614 1620,596 "/>
  <polygon class="fil3" points="1597,402 1681,493 1697,478 1613,388 1631,372 1618,359 1562,409 1575,422 "/>
  <polygon class="fil3" points="3081,878 3079,857 2938,870 2940,891 "/>
  <polygon class="fil3" points="2954,1373 2826,1313 2837,1290 2964,1276 2867,1230 2877,1211 2999,1273 2990,1295 2866,1308 2962,1353 "/>
  <polygon class="fil3" points="1913,155 1949,274 1969,268 1933,150 1961,142 1955,124 1879,146 1885,163 "/>
  <polygon class="fil3" points="2783,289 2701,382 2717,396 2799,303 2819,322 2831,307 2773,255 2762,269 "/>
  <path class="fil3" d="M2528 284l60 -125c0,0 67,16 70,55 3,41 -38,51 -58,44l10 62 -24 -10 -12 -66 -22 48 -24 -8 0 0zm71 -101l-18 45c0,0 30,20 48,6 18,-14 7,-33 -2,-39 -9,-6 -28,-13 -28,-13l0 0z"/>
  <polygon class="fil3" points="1455,719 1573,757 1579,737 1462,699 1470,673 1451,667 1428,742 1445,747 "/>
  <polygon class="fil3" points="3070,694 2940,748 2931,725 3005,621 2906,663 2899,642 3026,593 3037,615 2963,715 3061,674 "/>
  <path class="fil3" d="M1695 274l20 -14 68 86c3,3 14,4 28,-5 13,-9 11,-19 9,-21l-62 -87 16 -13 67 95c2,2 8,25 -20,46 -28,20 -53,8 -56,5l-70 -90 0 0z"/>
  <path class="fil3" d="M1451 875l0 21c0,0 -16,2 -18,22 -1,20 36,17 38,3 3,-14 19,-47 52,-47 33,0 52,43 38,64 -14,22 -45,22 -45,22l0 -20c0,0 27,0 26,-23 0,-23 -32,-30 -44,-12 -12,18 -9,48 -51,48 -41,0 -57,-69 2,-79l0 0z"/>
  <path class="fil3" d="M2180 221l0 -143c31,0 87,-5 87,36 0,43 -20,49 -64,50l0 57 -23 0zm21 -124c0,17 0,33 0,50 21,0 47,4 47,-26 0,-21 -14,-23 -47,-23z"/>
  <polygon class="fil3" points="2360,233 2390,94 2465,114 2460,131 2407,119 2400,159 2449,169 2444,189 2395,179 2386,218 2435,229 2429,249 "/>
  <path class="fil3" d="M2777 466l149 -47 17 17 -81 132 -15 -15 26 -39 -35 -43 -47 13 -15 -17 0 0zm79 -4l60 -18 -31 52 -29 -34z"/>
  <path class="fil3" d="M2934 987l135 80 -1 24 -152 28 1 -21 47 -7 9 -55 -41 -26 3 -22 0 0zm55 56l53 32 -59 12 6 -44 0 0z"/>
  <path class="fil2" d="M2253 7c509,0 921,412 921,921 0,509 -412,921 -921,921 -509,0 -921,-412 -921,-921 0,-509 412,-921 921,-921zm0 13c501,0 908,406 908,908 0,501 -406,908 -908,908 -501,0 -908,-406 -908,-908 0,-501 406,-908 908,-908z"/>
  <path class="fil4" d="M111 2680c0,15 -7,17 -18,17l-76 0c-11,-1 -18,-3 -18,-17l0 -520c1,-11 2,-16 17,-16l77 0c12,0 17,2 17,16l0 520z"/>
  <path class="fil4" d="M237 2173c0,-15 2,-20 13,-23 18,-6 87,-13 142,-13 50,0 230,0 230,165 0,122 -104,171 -227,171 -17,0 -26,-1 -47,-2l0 210c0,15 -6,16 -18,16l-75 0c-15,-1 -18,-5 -18,-17l0 -506zm111 235l0 0c10,2 20,2 33,2 56,0 128,-13 128,-108 0,-100 -88,-104 -124,-104 -18,0 -28,2 -38,3l0 207z"/>
  <path class="fil4" d="M695 2175c0,-16 3,-22 16,-27 19,-6 83,-11 130,-11 60,0 119,6 162,31 43,25 62,64 62,105 0,71 -56,107 -87,122 -7,2 -12,5 -19,7 7,2 12,2 18,4 84,21 119,82 119,143 0,65 -39,108 -92,131 -37,15 -85,23 -162,23 -61,0 -115,-6 -128,-10 -15,-4 -18,-9 -18,-29l0 -488zm108 206l0 0c21,1 37,1 57,-1 89,-9 96,-73 96,-92 0,-90 -90,-90 -109,-90 -16,0 -26,1 -44,3l0 179zm0 254l0 0c12,2 31,3 53,3 75,0 127,-28 127,-96 0,-108 -112,-108 -145,-108 -15,0 -23,1 -34,2l0 200z"/>
  <path class="fil4" d="M1753 2532c-1,32 -1,65 -24,100 -33,54 -92,76 -166,76 -119,0 -158,-59 -171,-81 -20,-35 -22,-76 -22,-107l0 -365c0,-13 3,-14 15,-14l51 0c13,0 16,1 16,14l0 351c0,38 1,143 119,143 40,0 79,-14 101,-46 18,-27 18,-50 18,-81l0 -366c0,-11 3,-15 13,-15 14,0 39,0 41,1 6,1 9,4 9,14l0 375z"/>
  <path class="fil4" d="M2174 2681c0,7 -1,14 -10,16l-45 0c-13,0 -18,-2 -18,-16l0 -263c0,-37 0,-96 -95,-96 -87,0 -88,50 -88,70l0 289c0,14 -6,16 -17,16l-40 0c-11,1 -16,-2 -16,-15l0 -316c0,-30 5,-44 33,-57 54,-27 131,-27 140,-27 154,0 155,83 155,129l0 270z"/>
  <path class="fil4" d="M2307 2221c-28,0 -44,-19 -44,-41 0,-24 19,-42 45,-42 23,0 41,16 43,39 0,22 -16,43 -44,43zm36 462l0 0c0,13 -4,14 -16,14l-44 0c-12,0 -12,-3 -12,-14l0 -377c0,-10 0,-15 14,-15l42 0c13,0 16,2 16,15l0 377z"/>
  <path class="fil4" d="M2580 2600l106 -299c2,-8 4,-10 10,-11l41 0c4,0 11,0 11,8 0,2 0,3 -3,13l-142 374c-5,11 -6,12 -16,12l-32 0c-7,-1 -8,-3 -12,-12l-147 -373c-2,-4 -3,-8 -3,-11 0,-9 8,-9 11,-9l50 0c12,0 13,2 18,13l110 297z"/>
  <path class="fil4" d="M2834 2481c6,110 64,161 126,161 49,0 85,-27 112,-69 11,-19 14,-23 23,-23 5,0 16,2 16,19 0,20 -36,137 -163,137 -49,0 -115,-19 -151,-91 -21,-39 -26,-84 -26,-121 0,-56 11,-97 28,-126 9,-16 50,-87 150,-87 128,0 156,107 156,140 0,22 -14,24 -24,25l-249 35zm194 -67l0 0c-5,-50 -41,-88 -87,-88 -66,0 -99,49 -107,117l194 -29z"/>
  <path class="fil4" d="M3256 2684c-1,13 -5,13 -15,13l-41 0c-11,0 -16,-1 -16,-13l0 -328c0,-27 3,-37 21,-47 24,-14 76,-27 129,-27 40,0 84,9 84,45 0,18 -13,34 -33,34 -15,0 -20,-6 -34,-21 -11,-10 -21,-20 -45,-20 -48,0 -49,35 -50,55l0 309z"/>
  <path class="fil4" d="M3614 2468c42,20 99,47 99,121 0,33 -14,66 -38,87 -34,29 -78,31 -98,31 -109,0 -140,-66 -140,-89 0,-22 17,-34 33,-34 18,0 28,13 32,20 3,4 6,9 11,18 11,17 28,39 70,39 43,0 63,-31 63,-60 0,-48 -42,-67 -78,-83 -67,-31 -123,-56 -123,-129 0,-56 41,-109 129,-109 93,0 127,54 127,79 0,19 -14,30 -30,30 -21,0 -28,-13 -36,-27 -9,-15 -24,-42 -63,-42 -44,0 -61,35 -61,57 0,44 39,61 68,74l35 16z"/>
  <path class="fil4" d="M3829 2221c-28,0 -44,-19 -44,-41 0,-24 19,-42 45,-42 23,0 41,16 43,39 0,22 -16,43 -44,43zm36 462l0 0c0,13 -4,14 -16,14l-44 0c-12,0 -12,-3 -12,-14l0 -377c0,-10 0,-15 14,-15l42 0c13,0 16,2 16,15l0 377z"/>
  <path class="fil4" d="M4045 2325l0 255c1,33 1,42 10,56 9,16 24,27 49,27 3,0 18,-1 21,-1 15,0 16,11 16,16 0,20 -45,26 -63,26 -39,0 -68,-15 -85,-36 -19,-24 -20,-50 -20,-74l0 -269 -43 0c-11,0 -12,-1 -12,-12 0,-20 0,-22 12,-23l43 0 0 -47c0,-14 2,-18 12,-27l37 -32c8,-7 11,-9 14,-9 8,0 9,10 9,20l0 96 71 0c10,0 13,1 13,11 0,21 0,23 -12,23l-72 0z"/>
  <path class="fil4" d="M4336 2753c-23,59 -59,132 -145,132 -10,0 -57,0 -57,-37 0,-18 13,-34 35,-34 7,0 37,7 44,7 35,0 59,-26 90,-124l-158 -383c-4,-9 -5,-11 -5,-13 0,-10 11,-9 15,-9l48 0c13,0 14,2 19,14l115 302 106 -302c4,-12 6,-13 13,-14l40 0c7,0 11,2 11,9 0,2 0,4 -4,14l-166 439z"/>
  <path class="fil5" d="M1096 2820c0,-3 0,-5 1,-7 1,-1 2,-2 5,-3 4,-1 11,-3 23,-3 11,-1 22,-1 32,-1 13,0 25,1 36,3 12,2 22,6 31,11 9,6 15,12 19,20 4,8 6,17 6,26 0,13 -4,25 -12,34 -8,9 -17,17 -27,22 -2,1 -4,2 -8,4 0,0 2,0 4,1 2,0 3,1 4,1 18,4 32,12 41,24 10,12 14,26 14,42 0,16 -4,29 -12,39 -8,10 -18,17 -31,21 -12,4 -24,7 -35,8 -11,1 -22,1 -33,1 -12,0 -23,0 -33,-1 -10,-1 -17,-2 -20,-3 -2,-1 -4,-2 -5,-3 -1,-1 -1,-4 -1,-9l0 -226zm35 99l0 0c2,0 4,0 7,0 2,0 4,0 6,0 6,0 11,0 17,-1 11,-1 20,-3 27,-7 7,-3 12,-8 16,-12 4,-5 6,-9 7,-14 1,-5 2,-9 2,-13 0,-11 -2,-19 -7,-26 -4,-6 -10,-11 -16,-14 -6,-3 -12,-5 -18,-5 -5,-1 -11,-1 -16,-1 -9,0 -17,1 -25,2l0 91zm0 121l0 0 0 0c11,1 21,2 29,2 21,0 37,-4 49,-12 12,-8 18,-20 18,-37 0,-8 -1,-15 -4,-21 -3,-6 -6,-11 -9,-14 -7,-8 -16,-14 -26,-16 -10,-2 -22,-4 -35,-4 -5,0 -11,0 -18,0l-5 0 0 102z"/>
  <path class="fil5" d="M1451 3003c-4,12 -9,22 -16,32 -7,9 -16,17 -26,22 -10,5 -22,8 -34,8 -13,0 -25,-3 -35,-8 -10,-5 -19,-13 -26,-22 -7,-9 -12,-20 -16,-31 -4,-12 -5,-23 -5,-36 0,-13 2,-25 6,-36 4,-12 9,-22 16,-31 7,-9 16,-16 26,-22 10,-5 22,-8 34,-8 13,0 25,3 35,9 10,6 19,14 26,23 7,10 12,20 15,31 3,11 5,22 5,33 0,12 -2,25 -5,36zm-45 -93l0 0c-10,-13 -21,-19 -34,-19 -14,0 -25,7 -34,20 -8,13 -13,31 -13,52 0,24 5,43 15,58 10,15 22,22 35,22 13,0 24,-7 33,-21 9,-14 13,-33 13,-58 -1,-23 -6,-41 -16,-54z"/>
  <path class="fil5" d="M1604 2897l0 0c4,5 6,11 9,16 2,6 3,13 3,22 0,11 -2,20 -6,27 -4,8 -9,14 -15,19 -6,5 -13,9 -21,11 -8,2 -15,4 -22,4 -6,0 -12,-1 -20,-3l-1 0c-10,9 -14,16 -14,23 0,5 3,9 9,10 6,2 15,3 28,3l38 2c6,0 12,1 18,2 6,1 11,3 18,6 6,3 11,7 15,13 4,6 6,13 6,22 0,7 -2,14 -6,22 -4,8 -10,15 -18,23 -8,7 -19,13 -33,18 -14,5 -30,7 -48,7 -12,0 -23,-1 -33,-4 -11,-3 -20,-8 -26,-15 -6,-7 -10,-14 -10,-23 0,-9 3,-18 10,-26 7,-8 16,-16 27,-23l-1 0c-8,-2 -14,-5 -19,-8 -5,-3 -8,-9 -8,-16 0,-4 1,-7 3,-11 2,-4 5,-8 8,-11 3,-4 6,-7 9,-9 3,-3 7,-6 11,-9l1 -1c-5,-3 -9,-6 -13,-10 -4,-4 -8,-9 -11,-16 -5,-10 -7,-20 -7,-31 0,-18 6,-33 18,-44 12,-11 27,-17 46,-17 6,0 11,0 14,1 4,1 8,2 13,4 5,2 9,3 11,4 3,1 6,1 10,1 1,0 4,0 7,-1 3,0 9,-1 17,-3 7,-1 11,-2 11,-2 2,0 3,1 4,4 1,3 1,5 1,7 0,2 -1,3 -4,4l-30 7zm-78 160l0 0c-7,7 -12,12 -16,17 -3,5 -5,10 -5,17 0,11 5,18 15,23 10,5 22,8 36,8 7,0 14,-1 21,-3 7,-2 14,-5 20,-8 6,-3 11,-8 15,-13 4,-5 5,-10 5,-16 0,-5 -1,-9 -4,-12 -2,-3 -5,-6 -9,-7 -4,-2 -7,-3 -11,-3 -4,-1 -8,-1 -12,-1l-11 0c-6,0 -14,-1 -24,-1 -10,0 -17,-1 -20,-1l-1 1zm52 -152l0 0c-3,-5 -6,-8 -8,-11 0,0 0,-1 -1,-1 -6,-5 -12,-7 -20,-7 -10,0 -18,3 -25,9 -7,6 -11,16 -11,30 0,15 4,27 12,36 8,9 17,13 27,13 9,0 17,-3 23,-9 7,-6 10,-16 10,-29 0,-4 0,-9 -1,-13 -2,-8 -4,-14 -7,-19z"/>
  <path class="fil5" d="M1809 3003c-4,12 -9,22 -16,32 -7,9 -16,17 -26,22 -10,5 -22,8 -34,8 -13,0 -25,-3 -35,-8 -10,-5 -19,-13 -26,-22 -7,-9 -12,-20 -16,-31 -4,-12 -5,-23 -5,-36 0,-13 2,-25 6,-36 4,-12 9,-22 16,-31 7,-9 16,-16 26,-22 10,-5 22,-8 34,-8 13,0 25,3 35,9 10,6 19,14 26,23 7,10 12,20 15,31 3,11 5,22 5,33 0,12 -2,25 -5,36zm-45 -93l0 0c-10,-13 -21,-19 -34,-19 -14,0 -25,7 -34,20 -8,13 -13,31 -13,52 0,24 5,43 15,58 10,15 22,22 35,22 13,0 24,-7 33,-21 9,-14 13,-33 13,-58 -1,-23 -6,-41 -16,-54z"/>
  <path class="fil5" d="M1879 3054c0,3 -1,4 -2,5 -1,1 -2,1 -5,1l-18 0c-3,0 -5,0 -6,-1 -1,-1 -1,-2 -1,-5l0 -150c0,-6 1,-11 2,-14 1,-3 4,-5 8,-8 6,-3 14,-6 24,-9 11,-2 21,-4 32,-4 10,0 19,2 26,5 7,3 11,8 11,16 0,4 -1,8 -4,11 -3,3 -6,4 -11,4 -3,0 -5,-1 -7,-2 -2,-1 -5,-4 -8,-8 -3,-3 -6,-5 -9,-7 -3,-1 -6,-2 -11,-2 -5,0 -9,1 -12,2 -3,2 -5,4 -7,6 -1,3 -2,5 -3,8 0,3 -1,5 -1,9l0 0 0 141z"/>
  <path class="fil5" d="M2093 3053c0,3 0,5 -1,6 -1,1 -3,1 -6,1l-22 0c-2,0 -4,-1 -5,-1 -1,-1 -2,-3 -2,-6l0 -238c0,-3 0,-4 1,-6 1,-1 3,-2 5,-2l22 0c3,0 4,0 6,1 1,1 2,3 2,5l0 239z"/>
  <path class="fil5" d="M2282 3053c0,2 0,3 -1,5 -1,1 -2,2 -3,2l-20 0c-3,0 -5,0 -6,-1 -1,-1 -2,-3 -2,-6l0 -120c0,-6 0,-11 -1,-16 -1,-4 -2,-9 -5,-13 -3,-4 -7,-8 -13,-11 -6,-3 -14,-4 -23,-4 -9,0 -16,1 -22,3 -5,2 -9,5 -12,9 -2,3 -4,7 -4,10 -1,3 -1,6 -1,10l0 132c0,3 -1,5 -2,6 -1,1 -3,1 -6,1l-17 0c-3,0 -4,-1 -5,-1 -1,-1 -1,-3 -1,-5l0 -144c0,-7 1,-13 3,-16 2,-4 6,-7 11,-10 5,-3 12,-5 18,-7 7,-2 13,-3 18,-4 6,-1 11,-1 15,-1 4,0 8,0 10,0 16,0 29,2 38,6 10,4 16,9 21,15 4,6 7,12 8,18 1,6 1,13 1,20l0 124z"/>
  <path class="fil5" d="M2470 3022c0,5 0,8 -1,11 -1,3 -2,6 -4,9 -3,4 -7,7 -12,10 -5,3 -11,5 -18,7 -6,2 -13,3 -19,4 -6,1 -12,1 -18,1 -26,0 -46,-8 -61,-24 -15,-16 -23,-38 -23,-67 0,-13 2,-25 5,-37 4,-12 9,-23 16,-33 7,-10 16,-18 27,-24 11,-6 22,-9 36,-9 8,0 15,1 21,3 6,2 12,5 18,9l0 -88c0,-3 0,-5 1,-6 1,-1 3,-2 6,-2l18 0c3,0 4,0 6,1 1,1 2,3 2,6l0 229zm-32 -120l0 0c-5,-4 -10,-7 -15,-10 -5,-2 -12,-4 -20,-4 -8,0 -16,2 -23,6 -7,4 -13,9 -18,16 -5,7 -9,15 -12,24 -3,9 -4,19 -4,30 0,24 5,43 16,57 11,14 25,21 43,21 7,0 13,-1 18,-3 4,-2 7,-4 9,-7 2,-3 3,-6 4,-9 1,-3 1,-6 1,-9l0 0 0 -112z"/>
  <path class="fil5" d="M2659 3003c-4,12 -9,22 -16,32 -7,9 -16,17 -26,22 -10,5 -22,8 -34,8 -13,0 -25,-3 -35,-8 -10,-5 -19,-13 -26,-22 -7,-9 -12,-20 -16,-31 -4,-12 -5,-23 -5,-36 0,-13 2,-25 6,-36 4,-12 9,-22 16,-31 7,-9 16,-16 26,-22 10,-5 22,-8 34,-8 13,0 25,3 35,9 10,6 19,14 26,23 7,10 12,20 15,31 3,11 5,22 5,33 0,12 -2,25 -5,36zm-45 -93l0 0c-10,-13 -21,-19 -34,-19 -14,0 -25,7 -34,20 -8,13 -13,31 -13,52 0,24 5,43 15,58 10,15 22,22 35,22 13,0 24,-7 33,-21 9,-14 13,-33 13,-58 -1,-23 -6,-41 -16,-54z"/>
  <path class="fil5" d="M2841 3053c0,2 0,3 -1,5 -1,1 -2,2 -3,2l-20 0c-3,0 -5,0 -6,-1 -1,-1 -2,-3 -2,-6l0 -120c0,-6 0,-11 -1,-16 -1,-4 -2,-9 -5,-13 -3,-4 -7,-8 -13,-11 -6,-3 -14,-4 -23,-4 -9,0 -16,1 -21,3 -6,2 -9,5 -12,9 -2,3 -4,7 -4,10 -1,3 -1,6 -1,10l0 132c0,3 -1,5 -2,6 -1,1 -3,1 -6,1l-18 0c-3,0 -4,-1 -5,-1 -1,-1 -1,-3 -1,-5l0 -144c0,-7 1,-13 3,-16 2,-4 6,-7 11,-10 6,-3 12,-5 18,-7 7,-2 13,-3 18,-4 6,-1 11,-1 15,-1 4,0 8,0 10,0 16,0 29,2 38,6 10,4 17,9 21,15 4,6 7,12 8,18 1,6 1,13 1,20l0 124z"/>
  <path class="fil5" d="M2901 2962c1,24 7,42 18,54 10,13 23,19 38,19 10,0 19,-3 28,-8 8,-5 15,-13 22,-23 3,-5 4,-7 6,-9 1,-1 3,-2 5,-2 2,0 3,1 5,2 2,1 2,3 2,7 0,3 -1,8 -4,15 -3,7 -7,14 -12,21 -6,7 -13,14 -22,19 -9,5 -20,8 -33,8 -6,0 -12,-1 -18,-2 -6,-1 -12,-4 -18,-7 -6,-3 -12,-8 -17,-13 -5,-5 -10,-12 -14,-20 -4,-8 -7,-17 -9,-26 -2,-9 -3,-19 -3,-29 0,-12 1,-23 3,-33 2,-10 5,-18 9,-25 2,-3 4,-7 7,-11 3,-4 7,-8 12,-13 5,-5 12,-8 20,-11 8,-3 17,-5 27,-5 13,0 24,2 33,7 9,5 16,11 21,18 5,7 9,14 11,21 2,7 3,13 3,18 0,4 -1,7 -3,9 -2,1 -4,2 -7,3l0 0 -110 16zm86 -31l0 0c-1,-11 -5,-21 -12,-29 -7,-8 -16,-11 -26,-11 -14,0 -25,5 -33,14 -8,10 -13,23 -15,39l86 -13z"/>
  <path class="fil5" d="M3125 2956l1 0c6,3 12,6 16,9 4,3 9,6 13,10 4,4 7,9 10,15 3,6 4,13 4,21 0,8 -1,15 -4,22 -3,7 -7,13 -12,18 -6,6 -13,9 -21,11 -8,2 -15,3 -22,3 -11,0 -21,-2 -29,-4 -8,-3 -15,-7 -19,-11 -5,-4 -8,-9 -10,-13 -2,-5 -3,-8 -3,-11 0,-5 2,-9 4,-11 3,-3 6,-4 10,-4 3,0 6,1 8,3 2,2 4,4 6,7 1,2 3,5 5,8 3,5 7,10 12,13 5,3 11,5 19,5 9,0 16,-3 20,-8 5,-5 7,-12 7,-19 0,-10 -3,-17 -9,-22 -6,-5 -14,-10 -25,-15l-1 0c-10,-5 -18,-9 -23,-12 -5,-3 -11,-7 -15,-11 -5,-4 -9,-9 -11,-15 -3,-6 -4,-13 -4,-21 0,-14 5,-26 15,-35 10,-10 24,-14 42,-14 10,0 18,1 25,4 7,3 13,6 18,10 5,4 8,8 10,12 2,4 3,8 3,11 0,4 -1,7 -4,10 -3,3 -6,4 -9,4 -4,0 -7,-1 -9,-3 -2,-2 -4,-5 -6,-9l0 -1c-3,-5 -7,-10 -11,-13 -4,-3 -10,-5 -17,-5 -9,0 -16,3 -20,8 -5,5 -7,11 -7,18 0,9 3,16 8,20 5,5 13,9 22,13l15 7z"/>
  <path class="fil5" d="M3235 2837c-3,4 -8,6 -14,6 -6,0 -11,-2 -14,-5 -3,-4 -5,-8 -5,-13 0,-5 2,-10 6,-14 4,-4 8,-5 14,-5 5,0 9,2 13,5 4,3 6,8 6,13 0,5 -2,10 -5,14zm2 217l0 0c0,3 0,5 -1,5 -1,1 -3,1 -6,1l-19 0c-2,0 -4,0 -4,-1 -1,-1 -1,-3 -1,-5l0 -172c0,-3 0,-4 1,-5 1,-1 2,-1 5,-1l19 0c3,0 5,0 6,1 1,1 1,3 1,6l0 172z"/>
  <path class="fil5" d="M3396 3023c0,9 -1,16 -3,20 -2,5 -6,9 -12,12 -6,3 -14,6 -23,7 -9,2 -18,2 -27,2 -5,0 -11,0 -16,-1 -6,-1 -13,-3 -20,-6 -7,-3 -13,-8 -19,-15 -5,-7 -8,-16 -8,-27 0,-10 2,-19 7,-26 5,-7 11,-13 19,-18 8,-5 18,-9 28,-13 11,-4 25,-8 43,-13l0 -18c0,-5 0,-10 -1,-13 0,-4 -1,-8 -3,-12 -2,-4 -4,-7 -8,-9 -4,-3 -9,-4 -15,-4 -5,0 -9,1 -13,2 -4,2 -7,4 -9,6 -2,3 -4,5 -5,7 -1,2 -2,5 -4,8l0 0c-2,5 -4,9 -6,11 -2,3 -5,4 -10,4 -3,0 -7,-1 -10,-4 -3,-3 -5,-6 -5,-11 0,-5 2,-10 5,-16 3,-5 8,-10 13,-14 13,-9 28,-13 47,-13 12,0 22,2 29,6 7,4 13,9 16,15 3,6 5,12 6,18 1,6 1,12 1,19l0 0 0 95zm-31 -60l0 0c-13,4 -23,7 -29,10 -7,3 -13,5 -18,9 -12,7 -18,17 -18,30 0,2 0,5 1,8 1,3 2,7 4,11 2,4 6,8 11,11 5,3 12,4 20,4 6,0 12,-1 16,-3 4,-2 7,-4 9,-6 2,-3 3,-5 3,-8 0,-3 1,-6 1,-9l0 -56z"/>
  <polygon class="fil5" points="949,2950 474,2950 474,2933 949,2933 "/>
  <polygon class="fil5" points="4032,2950 3577,2950 3577,2933 4032,2933 "/>
 </g>
</svg>
