<?xml version="1.0" standalone="no"?>
<!DOCTYPE svg PUBLIC "-//W3C//DTD SVG 20010904//EN"
 "http://www.w3.org/TR/2001/REC-SVG-20010904/DTD/svg10.dtd">
<svg version="1.0" xmlns="http://www.w3.org/2000/svg"
 width="8882.000000pt" height="2772.000000pt" viewBox="0 0 8882.000000 2772.000000"
 preserveAspectRatio="xMidYMid meet">

<g transform="translate(0.000000,2772.000000) scale(0.100000,-0.100000)"
fill="#000000" stroke="none">
<path d="M62386 21258 c-10 -32 -15 -8388 -5 -8473 15 -140 57 -321 94 -410
104 -252 229 -421 430 -583 97 -78 265 -169 386 -207 30 -10 70 -24 89 -30 52
-19 135 -35 230 -46 47 -6 108 -14 135 -20 33 -7 1070 -9 3035 -7 l2985 3 0
785 0 785 -2410 6 c-1598 4 -2436 10 -2486 17 -42 5 -97 17 -123 26 -26 9 -54
16 -62 16 -9 0 -28 6 -42 14 -15 7 -49 24 -77 36 -27 13 -52 26 -55 30 -3 3
-21 17 -40 30 -19 13 -50 37 -68 54 -54 49 -162 225 -162 262 0 8 -7 29 -16
47 -9 17 -20 56 -24 87 -4 30 -12 80 -18 110 -15 81 -27 3026 -12 3035 6 4
1032 6 2280 6 1247 -1 2276 2 2284 5 38 15 -9 298 -81 489 -49 131 -81 192
-182 350 -180 282 -466 537 -763 679 -152 72 -227 98 -403 137 -135 30 -545
38 -1929 38 -834 0 -1193 4 -1200 11 -8 8 -13 421 -16 1368 l-5 1357 -883 3
c-701 2 -883 0 -886 -10z"/>
<path d="M8000 21134 c-41 -7 -113 -21 -160 -29 -144 -26 -164 -31 -187 -43
-12 -7 -30 -12 -40 -12 -10 -1 -36 -9 -58 -20 -22 -11 -44 -19 -49 -20 -9 0
-217 -102 -251 -123 -80 -49 -193 -134 -267 -200 -97 -86 -240 -246 -289 -322
-18 -28 -45 -69 -61 -93 -15 -24 -28 -49 -28 -57 0 -8 -5 -17 -11 -20 -5 -4
-21 -32 -35 -63 -14 -32 -31 -69 -39 -84 -8 -14 -15 -33 -15 -41 0 -9 -6 -28
-14 -44 -18 -36 -56 -163 -56 -186 0 -10 -5 -27 -11 -38 -9 -18 -15 -53 -35
-226 -5 -35 -11 -53 -20 -53 -12 0 -14 -693 -14 -4375 0 -3882 2 -4375 15
-4375 13 0 15 -147 15 -1257 1 -1418 1 -1416 72 -1698 12 -44 27 -94 34 -112
8 -17 14 -38 14 -46 0 -9 6 -28 14 -44 8 -15 36 -73 62 -127 27 -55 72 -135
101 -179 29 -43 53 -81 53 -84 0 -3 21 -31 47 -62 171 -206 374 -366 608 -480
61 -29 122 -59 137 -67 14 -8 35 -14 45 -14 11 0 28 -7 39 -15 10 -8 31 -15
46 -15 15 0 45 -7 65 -15 21 -8 74 -22 118 -30 44 -8 81 -19 83 -25 3 -7 2253
-10 6729 -10 5884 0 6726 2 6739 15 8 8 31 17 52 20 65 9 199 47 272 75 30 12
68 26 83 32 40 15 203 99 260 133 130 80 230 165 403 346 65 68 176 226 219
312 15 29 30 59 35 67 4 8 15 32 24 53 9 20 23 52 31 70 17 37 44 113 51 142
3 11 11 43 19 70 34 123 47 200 57 330 13 160 13 4259 0 8735 -7 2555 -8 2720
-25 2795 -39 174 -75 303 -107 380 -7 17 -18 44 -25 60 -28 68 -100 204 -143
270 -141 214 -261 335 -507 513 -52 38 -277 153 -345 177 -154 54 -247 77
-436 109 -82 14 -751 16 -6665 15 -5541 -1 -6586 -3 -6649 -15z m12950 -1020
c160 -29 259 -64 410 -145 57 -31 215 -166 284 -243 35 -39 85 -105 113 -147
50 -76 123 -232 123 -263 0 -10 5 -26 11 -38 6 -11 19 -81 30 -155 19 -130 19
-198 16 -1607 -1 -809 -3 -3139 -5 -5178 -2 -3638 -4 -3900 -33 -3976 -6 -15
-14 -45 -19 -67 -14 -67 -73 -209 -91 -221 -5 -3 -9 -12 -9 -20 0 -8 -16 -38
-36 -67 -133 -190 -285 -325 -469 -415 -27 -14 -62 -31 -77 -38 -14 -8 -33
-14 -42 -14 -8 0 -30 -6 -48 -14 -18 -8 -77 -24 -130 -35 l-97 -21 -6228 0
-6228 0 -101 24 c-55 13 -110 28 -121 35 -12 6 -29 11 -38 11 -45 0 -263 123
-355 201 -26 21 -49 39 -53 39 -21 0 -170 177 -223 265 -60 98 -117 232 -140
325 -7 30 -17 71 -22 90 -11 42 -8 10592 3 10609 3 7 10 44 14 84 10 84 36
191 56 229 8 14 15 32 15 39 0 21 69 158 116 231 86 131 243 271 389 345 116
59 296 123 350 123 17 1 55 7 85 15 46 11 1036 13 6260 14 5613 1 6213 0 6290
-15z"/>
<path d="M11505 18699 c-16 -5 -74 -11 -130 -15 -55 -3 -127 -12 -160 -19 -33
-8 -76 -16 -95 -18 -48 -6 -171 -37 -195 -50 -11 -6 -36 -14 -55 -18 -36 -8
-110 -33 -145 -49 -11 -5 -48 -20 -82 -34 -139 -57 -431 -228 -495 -289 -7 -7
-47 -40 -88 -73 -174 -142 -366 -372 -499 -599 -29 -49 -57 -97 -62 -105 -5
-8 -12 -22 -15 -30 -3 -8 -15 -35 -26 -60 -11 -25 -26 -60 -34 -77 -36 -81
-57 -138 -75 -203 -6 -19 -17 -49 -25 -67 -8 -17 -14 -41 -14 -53 0 -12 -6
-43 -14 -69 -21 -67 -35 -140 -53 -286 -15 -116 -17 -309 -17 -1845 -1 -3976
4 -5823 15 -5836 17 -21 1831 -21 1848 -1 8 10 12 406 13 1438 l3 1424 3280 5
c1804 3 3286 9 3292 13 7 4 53 13 103 18 50 6 109 17 132 25 22 8 52 14 67 14
14 0 46 6 71 14 25 8 81 26 125 39 120 38 154 51 248 91 40 18 137 64 157 76
8 5 22 11 30 14 29 12 125 69 208 124 46 32 103 70 126 85 44 29 244 198 306
258 62 60 258 287 287 332 15 23 42 60 59 82 66 85 197 315 249 440 7 17 22
51 34 76 12 25 21 52 21 60 0 8 7 23 15 33 8 11 15 30 15 43 0 12 6 37 14 55
36 87 77 286 100 498 20 176 30 1274 16 1690 -16 447 -32 606 -86 820 -64 256
-114 383 -249 635 -67 127 -232 360 -324 460 -265 288 -533 492 -841 641 -52
25 -102 50 -111 54 -8 4 -47 20 -85 35 -38 15 -83 33 -101 41 -17 8 -38 14
-47 14 -8 0 -30 6 -48 14 -46 19 -170 56 -188 56 -8 0 -44 6 -80 15 -225 51 3
47 -3288 55 -1679 5 -3058 10 -3065 13 -7 2 -25 0 -42 -4z m5440 -1755 c303
-44 538 -146 745 -325 183 -157 329 -382 400 -614 60 -200 68 -281 69 -705 1
-392 -12 -706 -33 -790 -8 -30 -19 -75 -26 -100 -6 -25 -15 -61 -20 -80 -17
-72 -57 -159 -123 -270 -88 -149 -296 -355 -452 -447 -92 -54 -273 -133 -305
-133 -11 0 -37 -7 -58 -16 -70 -29 -642 -36 -3317 -40 -2446 -4 -2612 -3
-2648 13 -25 11 -45 29 -56 52 -17 34 -18 102 -14 1313 4 1484 1 1431 89 1611
90 183 242 338 429 435 74 38 132 59 235 84 32 8 635 13 2090 17 1125 4 2234
7 2465 9 342 2 441 -1 530 -14z"/>
<path d="M29515 18520 c-223 -15 -542 -77 -652 -126 -17 -8 -38 -14 -46 -14
-9 0 -28 -6 -44 -14 -15 -8 -53 -25 -83 -36 -396 -157 -767 -461 -1003 -825
-97 -148 -88 -132 -165 -290 -91 -184 -151 -353 -190 -535 -11 -52 -28 -126
-37 -165 -15 -63 -18 -266 -26 -2000 -5 -1061 -8 -2780 -7 -3820 l3 -1890 930
0 930 0 3 1409 c1 1021 5 1413 13 1423 10 11 513 13 3048 13 1953 0 3109 4
3241 10 198 10 314 25 450 57 36 8 85 19 110 23 25 4 59 12 75 18 17 6 64 21
105 33 41 13 86 29 100 36 14 7 30 13 37 13 6 0 24 6 40 14 15 8 78 38 138 67
159 75 279 148 433 261 69 51 300 254 332 293 14 16 54 61 89 100 89 99 261
322 261 339 0 2 15 26 33 54 17 27 63 112 101 188 37 76 74 152 82 167 8 16
14 33 14 39 0 5 6 24 14 41 22 50 47 128 55 172 4 22 13 50 19 62 7 12 12 35
12 52 0 16 5 42 11 58 6 15 17 71 24 123 8 52 19 131 25 175 16 112 8 2009 -9
2115 -24 157 -31 197 -45 273 -8 42 -18 82 -21 87 -3 6 -10 31 -15 58 -4 26
-14 63 -21 82 -7 19 -21 60 -32 90 -21 59 -28 76 -78 185 -36 81 -76 163 -89
185 -5 8 -31 54 -58 101 -109 189 -364 495 -522 624 -40 33 -98 82 -129 108
-136 118 -446 296 -646 372 -38 14 -83 32 -100 40 -16 7 -61 23 -100 35 -38
12 -90 28 -115 36 -25 8 -55 14 -66 14 -12 0 -44 6 -70 14 -27 8 -103 22 -169
31 -66 10 -131 20 -145 23 -38 9 -5918 10 -6045 2z m5415 -1737 c19 -6 60 -16
90 -22 150 -27 308 -87 443 -167 142 -85 310 -237 386 -348 15 -23 40 -59 55
-81 45 -65 126 -244 154 -340 43 -147 47 -214 47 -755 0 -600 -12 -750 -71
-888 -35 -84 -72 -160 -108 -227 -67 -122 -280 -349 -401 -426 -95 -60 -103
-65 -155 -89 -118 -56 -181 -78 -255 -90 -27 -4 -70 -13 -95 -18 -30 -7 -1024
-12 -2927 -14 l-2883 -3 -40 40 -40 40 -1 1305 -1 1305 21 64 c11 35 21 69 21
76 0 8 7 26 15 42 7 15 24 51 36 78 37 84 106 179 187 257 67 64 109 96 207
155 35 21 107 53 120 53 7 0 28 6 46 14 33 14 104 30 199 46 79 13 4910 6
4950 -7z"/>
<path d="M42349 18526 c-2 -2 -89 -6 -194 -10 -104 -3 -221 -10 -260 -15 -38
-5 -124 -13 -190 -17 -66 -4 -140 -13 -165 -20 -25 -8 -56 -14 -69 -14 -13 0
-49 -7 -80 -16 -111 -32 -186 -55 -206 -64 -11 -5 -54 -23 -95 -40 -374 -155
-740 -466 -971 -825 -83 -130 -81 -126 -130 -225 -23 -47 -47 -96 -54 -110
-12 -24 -65 -180 -98 -290 -9 -30 -22 -82 -28 -115 -6 -33 -15 -78 -21 -100
-16 -63 -28 -1266 -22 -2245 0 -41 0 -257 0 -480 -1 -455 11 -582 66 -745 5
-16 14 -46 18 -65 20 -82 115 -304 171 -400 129 -219 170 -278 293 -419 159
-182 346 -335 549 -449 54 -31 174 -90 212 -106 17 -7 51 -23 78 -34 26 -12
55 -22 65 -22 9 0 26 -7 36 -15 11 -8 31 -15 44 -15 13 0 33 -5 45 -12 12 -6
40 -15 62 -19 22 -4 69 -14 105 -22 36 -8 110 -24 165 -34 96 -17 243 -18
3405 -18 3074 0 3310 1 3370 17 36 9 90 20 120 24 30 3 63 10 72 15 10 5 37
14 60 19 79 17 205 58 265 86 18 8 50 22 70 31 21 9 45 19 53 24 8 4 40 20 70
36 30 15 73 39 95 53 22 13 48 29 57 35 101 60 308 227 399 322 125 132 257
307 331 438 12 22 28 49 34 60 13 22 56 109 81 165 8 19 22 48 29 63 8 16 14
35 14 42 0 8 6 29 14 47 8 18 24 67 36 108 12 41 28 96 36 121 8 26 14 60 14
77 0 17 8 57 17 89 15 53 17 178 21 1448 3 1348 0 1570 -28 1775 -11 85 -36
196 -56 255 -8 23 -14 49 -14 58 0 10 -9 42 -21 70 -12 29 -28 70 -36 92 -55
143 -178 353 -301 510 -74 95 -311 328 -408 401 -169 128 -392 254 -540 307
-158 56 -290 97 -314 97 -10 0 -40 6 -66 14 -77 22 -264 47 -428 57 -142 8
-5768 13 -5777 5z m5211 -1683 c222 -46 390 -134 547 -286 138 -134 235 -305
279 -492 32 -134 35 -189 39 -745 4 -602 -4 -1009 -24 -1195 -18 -167 -65
-302 -153 -440 -37 -59 -237 -265 -257 -265 -6 0 -30 -13 -54 -30 -24 -16 -55
-34 -68 -40 -13 -5 -31 -14 -39 -19 -16 -10 -95 -39 -175 -65 -107 -34 -378
-37 -2395 -34 -1081 2 -2096 0 -2255 -4 -189 -5 -311 -4 -350 3 -33 5 -86 14
-118 19 -32 5 -64 13 -70 18 -7 5 -26 12 -43 15 -48 9 -180 74 -272 134 -147
95 -292 262 -365 418 -10 22 -27 58 -38 81 -10 23 -19 48 -19 56 0 9 -7 29
-15 44 -8 16 -15 41 -15 55 0 14 -7 48 -16 75 -22 69 -28 550 -15 1184 11 518
19 630 53 770 81 327 355 614 673 706 169 49 130 47 1020 54 462 4 1567 5
2455 3 1413 -4 1624 -6 1690 -20z"/>
<path d="M54035 18520 c-93 -7 -222 -32 -288 -56 -20 -8 -45 -14 -53 -14 -9 0
-30 -6 -47 -14 -18 -7 -57 -23 -87 -35 -333 -132 -660 -405 -879 -735 -51 -76
-152 -263 -164 -302 -3 -10 -15 -44 -27 -74 -21 -52 -35 -99 -59 -195 -5 -22
-18 -89 -28 -150 -17 -104 -18 -254 -16 -2751 l1 -2640 21 -39 c42 -78 -9 -74
861 -74 l775 0 39 27 c22 15 49 43 60 62 l21 35 2 2268 2 2268 21 72 c37 126
67 191 127 283 45 70 176 193 251 237 62 36 230 96 337 119 48 10 638 14 2980
18 l2920 5 3 42 c6 83 -39 303 -84 411 -8 18 -14 37 -14 42 0 16 -116 252
-144 293 -14 21 -26 40 -26 42 0 12 -100 143 -172 224 -271 308 -612 518 -968
597 -36 8 -85 19 -110 26 -34 9 -670 12 -2605 13 -1408 1 -2600 -1 -2650 -5z"/>
<path d="M74000 18519 c-85 -4 -186 -10 -225 -13 -38 -3 -122 -10 -185 -16
-121 -10 -244 -30 -345 -57 -94 -25 -268 -84 -303 -102 -9 -6 -55 -29 -102
-51 -47 -23 -103 -52 -125 -65 -22 -13 -47 -27 -55 -31 -26 -13 -193 -135
-250 -183 -93 -77 -199 -182 -277 -275 -73 -86 -243 -329 -243 -347 0 -5 -13
-30 -29 -56 -28 -46 -76 -158 -118 -273 -19 -50 -30 -88 -63 -205 -51 -182
-64 -691 -56 -2215 5 -1035 8 -1213 21 -1263 8 -32 15 -68 15 -80 0 -23 9 -54
61 -202 17 -49 33 -102 36 -117 3 -15 11 -33 19 -39 8 -6 14 -17 14 -24 0 -13
93 -200 122 -245 8 -14 37 -59 64 -100 106 -165 324 -404 474 -518 30 -23 66
-50 80 -61 14 -10 58 -40 98 -66 62 -39 102 -61 242 -134 8 -5 31 -15 50 -23
19 -8 51 -22 70 -31 46 -22 117 -47 160 -57 19 -4 49 -13 65 -18 68 -23 143
-43 200 -52 33 -5 85 -16 115 -22 43 -10 750 -13 3370 -13 3074 0 3320 1 3390
17 41 9 100 21 130 27 63 11 131 28 175 43 17 6 44 13 60 16 17 3 39 10 50 17
11 7 33 16 48 19 41 10 271 117 342 159 190 115 297 198 461 362 88 88 169
174 179 190 11 17 39 56 62 87 24 31 43 59 43 61 0 3 15 28 34 57 32 48 124
228 151 295 7 17 19 46 28 65 8 19 25 67 37 105 12 39 27 84 32 100 6 17 14
53 18 80 4 28 12 61 18 75 5 14 12 52 16 85 13 112 30 205 38 205 4 0 8 628 8
1395 0 772 -4 1395 -9 1395 -4 0 -11 24 -15 53 -13 106 -50 308 -72 392 -27
104 -84 277 -102 311 -5 10 -21 44 -36 74 -99 211 -225 387 -426 594 -250 258
-530 429 -900 551 -152 50 -168 55 -190 55 -13 0 -46 6 -74 14 -85 24 -255 46
-423 56 -190 11 -5747 10 -5973 -1z m4660 -1659 c716 -7 734 -8 865 -51 63
-21 68 -23 155 -64 109 -51 194 -112 274 -193 65 -66 175 -216 176 -238 0 -6
7 -17 15 -24 8 -7 15 -20 15 -30 0 -10 7 -23 15 -30 8 -7 15 -20 15 -29 1 -9
9 -34 20 -56 11 -22 19 -48 20 -58 0 -10 7 -34 15 -55 25 -59 38 -398 38 -997
0 -607 -13 -941 -37 -1000 -9 -20 -16 -46 -16 -57 0 -17 -14 -54 -55 -143 -8
-16 -16 -37 -20 -45 -43 -108 -243 -322 -372 -398 -39 -23 -76 -42 -81 -42 -5
0 -15 -7 -22 -15 -7 -8 -20 -15 -29 -15 -9 -1 -34 -9 -56 -20 -22 -11 -48 -19
-57 -20 -10 0 -35 -7 -55 -15 -24 -9 -108 -18 -228 -25 -256 -13 -4614 -13
-4745 1 -52 6 -115 16 -140 24 -25 7 -62 16 -82 20 -20 3 -50 12 -65 20 -15 8
-33 15 -38 15 -16 0 -153 71 -217 112 -31 21 -86 65 -121 100 -62 61 -137 149
-137 161 0 3 -16 29 -35 58 -19 30 -35 60 -35 69 0 8 -7 24 -15 34 -8 11 -15
27 -15 35 0 9 -7 29 -15 44 -8 15 -17 45 -21 65 -3 20 -12 57 -20 81 -19 56
-34 582 -34 1166 0 453 11 690 35 765 8 25 24 79 36 120 71 253 275 490 529
615 30 15 63 31 74 37 26 14 99 36 186 56 65 14 158 17 685 22 936 8 2821 8
3595 0z"/>
<path d="M56565 7649 c-282 -36 -471 -183 -549 -429 -38 -118 -46 -210 -46
-511 l0 -279 -150 0 -150 0 0 -280 0 -280 150 0 150 0 0 -830 0 -830 340 0
340 0 0 830 0 830 175 0 175 0 0 280 0 280 -175 0 -175 0 0 213 c0 279 17 351
93 397 39 24 142 26 202 5 22 -8 43 -15 48 -15 4 0 7 132 7 293 l0 294 -52 11
c-136 31 -254 37 -383 21z"/>
<path d="M47675 7489 c-404 -48 -714 -242 -982 -617 -196 -274 -303 -647 -303
-1057 0 -337 56 -596 186 -860 79 -162 171 -291 294 -415 283 -285 566 -403
965 -404 243 0 425 42 654 150 l101 47 0 474 0 474 -107 -109 c-119 -120 -169
-158 -276 -207 -154 -71 -339 -83 -503 -31 -265 85 -464 336 -520 660 -13 70
-15 129 -11 256 8 214 31 320 104 465 78 157 195 276 338 345 110 52 170 65
310 65 128 -1 216 -20 316 -71 70 -35 184 -130 272 -225 l77 -84 0 476 0 476
-92 46 c-145 72 -266 114 -378 132 -129 20 -339 27 -445 14z"/>
<path d="M65370 5820 l0 -1610 390 0 390 0 0 1610 0 1610 -390 0 -390 0 0
-1610z"/>
<path d="M70103 7418 c3 -7 228 -402 501 -877 l496 -865 0 -733 0 -733 375 0
375 0 0 735 0 736 500 871 c275 479 500 873 500 875 0 2 -201 2 -447 1 l-447
-3 -123 -265 c-262 -568 -328 -717 -344 -775 l-16 -60 -12 45 c-19 77 -81 220
-281 648 l-192 412 -445 0 c-352 0 -444 -3 -440 -12z"/>
<path d="M62330 6760 l0 -330 -150 0 -150 0 0 -280 0 -280 150 0 150 0 0 -830
0 -830 345 0 345 0 0 830 0 830 145 0 145 0 0 280 0 280 -145 0 -145 0 0 330
0 330 -345 0 -345 0 0 -330z"/>
<path d="M50080 6494 c-14 -2 -59 -9 -100 -15 -192 -29 -389 -131 -542 -283
-164 -163 -261 -335 -325 -583 -25 -100 -28 -123 -28 -298 0 -212 10 -275 72
-445 66 -184 162 -331 300 -460 231 -216 516 -313 826 -281 261 26 452 118
647 311 337 334 447 866 273 1329 -136 363 -448 639 -803 707 -76 15 -275 26
-320 18z m273 -682 c158 -78 240 -251 240 -502 0 -257 -80 -423 -242 -503 -61
-30 -72 -32 -171 -32 -99 0 -110 2 -172 33 -162 80 -241 244 -241 502 0 143
17 229 63 320 51 101 107 154 209 197 48 20 69 23 152 21 84 -3 103 -7 162
-36z"/>
<path d="M53122 6489 c-191 -29 -351 -144 -485 -347 l-62 -94 -3 191 -2 191
-340 0 -340 0 0 -1110 0 -1110 335 0 335 0 0 503 c0 846 22 1032 135 1136 66
60 105 74 215 75 84 1 101 -2 145 -25 58 -29 95 -82 122 -174 16 -54 18 -129
21 -787 l3 -728 334 0 335 0 0 478 c0 864 25 1066 146 1172 60 52 98 64 204
64 109 1 156 -17 208 -80 73 -88 82 -194 82 -981 l0 -653 345 0 345 0 0 758
c0 783 -6 934 -40 1060 -41 147 -126 271 -246 358 -147 105 -377 140 -581 88
-80 -20 -208 -84 -270 -136 -57 -48 -138 -145 -179 -214 l-27 -45 -22 54 c-74
184 -205 299 -387 342 -84 19 -246 26 -326 14z"/>
<path d="M58410 6494 c-14 -2 -59 -9 -100 -15 -192 -29 -389 -131 -542 -283
-164 -163 -261 -335 -325 -583 -25 -100 -28 -123 -28 -298 0 -212 10 -275 72
-445 66 -184 162 -331 300 -460 231 -216 516 -313 826 -281 261 26 452 118
647 311 337 334 447 866 273 1329 -136 363 -448 639 -803 707 -76 15 -275 26
-320 18z m273 -682 c158 -78 240 -251 240 -502 0 -257 -80 -423 -242 -503 -61
-30 -72 -32 -171 -32 -99 0 -110 2 -172 33 -162 80 -241 244 -241 502 0 143
17 229 63 320 51 101 107 154 209 197 48 20 69 23 152 21 84 -3 103 -7 162
-36z"/>
<path d="M67505 6489 c-323 -41 -554 -228 -625 -505 -24 -95 -27 -269 -5 -362
59 -248 267 -407 693 -528 228 -64 304 -123 304 -235 -1 -66 -28 -108 -94
-145 -51 -28 -57 -29 -188 -29 -110 0 -150 5 -215 23 -123 35 -287 120 -387
201 -48 38 -89 67 -91 63 -3 -4 -35 -135 -72 -291 l-68 -284 29 -24 c50 -41
238 -132 346 -167 135 -45 231 -64 394 -78 425 -36 756 115 904 411 51 102 72
198 72 336 1 203 -47 341 -156 451 -103 102 -228 166 -517 264 -288 98 -355
148 -335 255 9 46 47 89 98 110 62 26 228 23 332 -4 89 -24 236 -91 315 -145
30 -20 58 -33 62 -29 12 13 141 504 136 517 -5 14 -187 93 -284 125 -204 66
-461 93 -648 70z"/>
<path d="M74030 6494 c-14 -2 -59 -9 -100 -15 -192 -29 -389 -131 -542 -283
-164 -163 -261 -335 -325 -583 -25 -100 -28 -123 -28 -298 0 -212 10 -275 72
-445 66 -184 162 -331 300 -460 231 -216 516 -313 826 -281 261 26 452 118
647 311 337 334 447 866 273 1329 -136 363 -448 639 -803 707 -76 15 -275 26
-320 18z m273 -682 c158 -78 240 -251 240 -502 0 -257 -80 -423 -242 -503 -61
-30 -72 -32 -171 -32 -99 0 -110 2 -172 33 -162 80 -241 244 -241 502 0 143
17 229 63 320 51 101 107 154 209 197 48 20 69 23 152 21 84 -3 103 -7 162
-36z"/>
<path d="M81145 6489 c-323 -41 -554 -228 -625 -505 -24 -95 -27 -269 -5 -362
59 -248 267 -407 693 -528 228 -64 304 -123 304 -235 -1 -66 -28 -108 -94
-145 -51 -28 -57 -29 -188 -29 -110 0 -150 5 -215 23 -123 35 -287 120 -387
201 -48 38 -89 67 -91 63 -3 -4 -35 -135 -72 -291 l-68 -284 29 -24 c50 -41
238 -132 346 -167 135 -45 231 -64 394 -78 425 -36 756 115 904 411 51 102 72
198 72 336 1 203 -47 341 -156 451 -103 102 -228 166 -517 264 -288 98 -355
148 -335 255 9 46 47 89 98 110 62 26 228 23 332 -4 89 -24 236 -91 315 -145
30 -20 58 -33 62 -29 12 13 141 504 136 517 -5 14 -187 93 -284 125 -204 66
-461 93 -648 70z"/>
<path d="M61469 6469 c-250 -36 -431 -192 -555 -477 l-34 -77 0 258 0 257
-330 0 -330 0 0 -1110 0 -1110 345 0 345 0 0 474 c0 261 5 519 10 575 19 182
75 317 169 412 138 138 338 174 577 104 20 -6 21 1 48 282 15 158 30 313 33
344 l5 56 -70 11 c-79 13 -130 14 -213 1z"/>
<path d="M79829 6469 c-250 -36 -431 -192 -555 -477 l-34 -77 0 258 0 257
-330 0 -330 0 0 -1110 0 -1110 345 0 345 0 0 474 c0 261 5 519 10 575 19 182
75 317 169 412 138 138 338 174 577 104 20 -6 21 1 48 282 15 158 30 313 33
344 l5 56 -70 11 c-79 13 -130 14 -213 1z"/>
<path d="M75833 5723 c4 -582 8 -728 21 -820 31 -216 102 -369 230 -498 162
-162 369 -251 649 -276 308 -29 616 43 804 185 84 64 184 191 239 303 91 184
104 338 104 1206 l0 607 -340 0 -340 0 0 -642 c0 -703 -5 -785 -56 -898 -53
-117 -144 -174 -284 -174 -109 -1 -169 17 -226 67 -48 42 -80 97 -110 187 -17
51 -19 108 -22 758 l-3 702 -335 0 -336 0 5 -707z"/>
</g>
</svg>
